<svg width="124" height="32" fill="none" xmlns="http://www.w3.org/2000/svg"><path fill-rule="evenodd" clip-rule="evenodd" d="M16.211 29.49c-7.536 0-13.669-6.052-13.669-13.491 0-7.44 6.133-13.489 13.67-13.489S29.882 8.56 29.882 16c0 7.439-6.133 13.49-13.67 13.49zm-13.669 0v-4.893a16.193 16.193 0 004.959 4.893H2.542zm0-26.98h4.959a16.15 16.15 0 00-4.959 4.893V2.51zM16.212 0H0v32h16.211c8.954 0 16.211-7.164 16.211-16.001C32.423 7.164 25.166 0 16.212 0zM46.9 12.175c.904 0 1.7-.17 2.386-.513a3.678 3.678 0 001.584-1.457c.369-.632.553-1.363.553-2.197 0-.833-.184-1.567-.553-2.198a3.705 3.705 0 00-1.584-1.458c-.686-.34-1.481-.512-2.385-.512h-2.992v8.334H46.9v.002zM41.621 1.928h5.385c1.313 0 2.48.252 3.5.757 1.022.503 1.813 1.215 2.376 2.135.563.92.845 1.984.845 3.188 0 1.203-.282 2.267-.845 3.187-.563.92-1.354 1.633-2.375 2.135-1.02.505-2.188.755-3.501.755H41.62V1.928zm14.324 12.16h2.2V4.811h-2.2v9.275zm.106-11.178a1.225 1.225 0 01-.404-.93c0-.37.135-.679.404-.928.27-.249.603-.374 1.003-.374.4 0 .733.118 1.003.356.27.237.405.537.405.895 0 .383-.132.703-.395.964-.264.26-.603.391-1.013.391-.399 0-.733-.125-1.003-.374zm11.342 8.18c.533-.492.801-1.13.801-1.92 0-.774-.268-1.407-.801-1.893-.535-.485-1.218-.729-2.052-.729-.842 0-1.532.243-2.066.729-.534.486-.801 1.12-.801 1.893 0 .79.267 1.428.8 1.92.535.494 1.225.74 2.067.74.834 0 1.517-.246 2.052-.74zm2.966-6.279v7.87c0 3.266-1.69 4.897-5.068 4.897a9.527 9.527 0 01-2.572-.34c-.809-.226-1.477-.552-2.005-.98l.986-1.633c.41.336.928.606 1.558.809.627.2 1.263.302 1.91.302 1.03 0 1.787-.23 2.27-.695.48-.463.721-1.168.721-2.12v-.485a3.654 3.654 0 01-1.372.921c-.567.213-1.17.32-1.778.313-.893 0-1.7-.189-2.42-.564a4.294 4.294 0 01-1.71-1.59c-.416-.684-.622-1.464-.622-2.346 0-.877.207-1.657.623-2.334.418-.678.988-1.2 1.709-1.573.72-.37 1.527-.555 2.42-.555a5.018 5.018 0 011.855.33 3.457 3.457 0 011.4 1.007V4.81h2.095zm2.885 9.276h2.2V4.812h-2.2v9.275zm.105-11.177a1.227 1.227 0 01-.405-.93c0-.37.135-.679.405-.928s.604-.374 1.004-.374c.398 0 .733.118 1.002.356.27.237.406.537.406.895 0 .383-.132.703-.395.964-.265.26-.604.391-1.013.391-.4 0-.734-.125-1.004-.374zm10.63 10.673a2.59 2.59 0 01-.944.469c-.38.105-.773.158-1.168.156-1.032 0-1.83-.264-2.393-.798-.563-.534-.845-1.309-.845-2.329V6.618H77.08V4.881h1.548V2.765h2.2V4.88h2.516v1.74h-2.517v4.41c0 .453.112.798.335 1.035.223.238.546.354.967.354.494 0 .903-.126 1.233-.38l.614 1.545h.001zm6.572-1.329a2.03 2.03 0 00.907-1.068v-1.078h-2.272c-1.264 0-1.9.412-1.9 1.234 0 .394.158.708.476.94.316.231.756.344 1.321.344.551 0 1.04-.123 1.468-.372zm2.006-6.563c.733.653 1.1 1.638 1.1 2.96v5.434h-2.076v-1.128a2.568 2.568 0 01-1.152.93c-.5.214-1.1.323-1.806.323-.702 0-1.32-.12-1.847-.358-.528-.237-.935-.567-1.222-.99a2.488 2.488 0 01-.432-1.434c0-.833.315-1.5.942-2.004.628-.506 1.615-.756 2.963-.756h2.431v-.14c0-.65-.197-1.145-.59-1.492-.393-.348-.976-.523-1.75-.523a5.07 5.07 0 00-1.558.244c-.51.162-.942.388-1.296.677l-.861-1.58c.494-.372 1.085-.654 1.778-.852a8.083 8.083 0 012.2-.293c1.383 0 2.443.325 3.176.98v.002zm3.915 8.395h2.2V1.2h-2.2v12.887zm7.317-3.824h5.891V8.256h-5.891v2.006zm-56.15 17.212c.527-.533.791-1.235.791-2.103 0-.87-.263-1.569-.791-2.103-.528-.531-1.197-.797-2.007-.797-.808 0-1.476.266-1.997.797-.523.534-.783 1.234-.783 2.103 0 .868.26 1.57.783 2.103.521.53 1.189.799 1.998.799.81 0 1.478-.269 2.006-.798v-.002zm-4.575 2.05a4.456 4.456 0 01-1.787-1.696c-.428-.722-.643-1.543-.643-2.458 0-.912.215-1.73.643-2.446a4.491 4.491 0 011.787-1.686c.762-.405 1.62-.608 2.569-.608.962 0 1.824.203 2.586.608a4.491 4.491 0 011.787 1.686c.428.715.641 1.534.641 2.447 0 .914-.213 1.734-.64 2.458a4.457 4.457 0 01-1.788 1.693c-.762.405-1.624.608-2.587.608-.949 0-1.806-.204-2.568-.607zm16.37-6.949h-3.056v7.435h-2.2v-7.435h-3.073v-1.84h8.328v1.84zm9.186 0h-3.057v7.435h-2.2v-7.435h-3.07v-1.84h8.326l.001 1.84zm3.457.407c-.486.413-.783.96-.889 1.644h5.333c-.094-.674-.382-1.216-.862-1.635-.481-.417-1.08-.623-1.795-.623-.706 0-1.3.203-1.787.615v-.001zm6.502 3.084h-7.373a2.521 2.521 0 001.012 1.623c.545.398 1.224.599 2.034.599 1.031 0 1.882-.336 2.55-1.005l1.18 1.337a3.97 3.97 0 01-1.601 1.129c-.645.254-1.372.381-2.182.381-1.035 0-1.943-.202-2.73-.608a4.4 4.4 0 01-1.82-1.693c-.427-.724-.643-1.544-.643-2.458 0-.901.209-1.715.626-2.439a4.416 4.416 0 011.732-1.695c.739-.404 1.572-.607 2.5-.607.915 0 1.732.198 2.454.6.721.397 1.285.96 1.69 1.684.403.723.608 1.559.608 2.51 0 .152-.013.363-.037.642zm11.457-5.331v9.274h-2.182v-7.435h-4.628v7.434h-2.201v-9.273h9.01zm5.235 2.247c-.486.413-.784.96-.889 1.644h5.334c-.094-.674-.382-1.216-.862-1.635-.481-.417-1.08-.623-1.795-.623-.707 0-1.3.203-1.788.615v-.001zm6.503 3.084H94.4a2.53 2.53 0 001.013 1.623c.545.398 1.224.599 2.032.599 1.032 0 1.884-.336 2.552-1.005l1.179 1.337a3.97 3.97 0 01-1.601 1.129c-.646.254-1.372.381-2.182.381-1.032 0-1.942-.202-2.73-.608a4.4 4.4 0 01-1.82-1.693c-.428-.724-.643-1.544-.643-2.458 0-.901.209-1.715.626-2.439a4.416 4.416 0 011.732-1.695c.74-.404 1.574-.607 2.501-.607.914 0 1.732.198 2.453.6.721.397 1.284.96 1.689 1.684.405.723.608 1.559.608 2.51 0 .152-.011.363-.035.642zm10.841-5.331v9.274h-2.2v-7.435h-3.521l-.086 1.842c-.058 1.227-.174 2.255-.344 3.083-.17.827-.458 1.482-.863 1.963-.403.48-.959.719-1.663.719-.329 0-.734-.065-1.214-.19l.105-1.822c.165.033.305.05.423.05.445 0 .779-.176 1.003-.53.235-.387.383-.82.432-1.269.064-.492.121-1.195.166-2.109l.158-3.578h7.604v.002zm8.64 7.293c.34-.278.51-.684.51-1.215 0-.52-.164-.904-.492-1.147-.33-.243-.827-.37-1.495-.382l-2.007-.018v3.144l2.007.017c.644.012 1.137-.119 1.477-.4zm1.787-3.439c.636.533.958 1.288.958 2.26 0 1.017-.351 1.804-1.056 2.36-.703.555-1.695.828-2.974.816l-4.4-.018v-9.272h2.201v3.038l2.516.017c1.196 0 2.114.267 2.755.8z" fill="#120D0F"/></svg>