<svg width="42" height="42" viewBox="0 0 42 42" fill="none" xmlns="http://www.w3.org/2000/svg">
<g id="ri:whatsapp-fill" clip-path="url(#clip0_4659_14)">
<path id="Vector" d="M21.002 0.583496C32.2781 0.583496 41.4187 9.72404 41.4187 21.0002C41.4187 32.2763 32.2781 41.4168 21.002 41.4168C17.3939 41.4226 13.8494 40.4678 10.7324 38.6504L0.593523 41.4168L3.35386 31.2738C1.53492 28.1559 0.579328 24.6098 0.585355 21.0002C0.585355 9.72404 9.7259 0.583496 21.002 0.583496ZM14.044 11.4043L13.6357 11.4207C13.3713 11.4368 13.113 11.5062 12.8762 11.6248C12.6547 11.7502 12.4525 11.907 12.2759 12.0903C12.0309 12.321 11.8921 12.5211 11.7431 12.7151C10.9879 13.6969 10.5813 14.9023 10.5875 16.141C10.5916 17.1414 10.8529 18.1153 11.2612 19.0259C12.0963 20.8675 13.4703 22.8172 15.2833 24.6241C15.7202 25.059 16.149 25.4959 16.6104 25.9022C18.8631 27.8856 21.5477 29.316 24.4504 30.0795L25.6101 30.2571C25.9878 30.2775 26.3655 30.2489 26.7452 30.2305C27.3398 30.1998 27.9204 30.0388 28.4459 29.7589C28.7133 29.6212 28.9742 29.4713 29.2279 29.3097C29.2279 29.3097 29.3157 29.2526 29.4831 29.126C29.7587 28.9218 29.9282 28.7769 30.1569 28.538C30.3263 28.3624 30.4733 28.1562 30.5856 27.9214C30.7449 27.5886 30.9041 26.9537 30.9694 26.4249C31.0184 26.0206 31.0041 25.8001 30.998 25.6633C30.9899 25.4449 30.8081 25.2182 30.6101 25.1223L29.4219 24.5894C29.4219 24.5894 27.6456 23.8156 26.5594 23.3215C26.4458 23.2719 26.324 23.2435 26.2001 23.2378C26.0604 23.2235 25.9193 23.2392 25.7862 23.2839C25.653 23.3286 25.531 23.4013 25.4284 23.4971C25.4181 23.493 25.2814 23.6094 23.8052 25.3979C23.7205 25.5118 23.6038 25.5978 23.47 25.6451C23.3362 25.6923 23.1913 25.6987 23.0539 25.6633C22.9209 25.6277 22.7906 25.5826 22.6639 25.5286C22.4108 25.4224 22.323 25.3816 22.1494 25.3081C20.9777 24.7967 19.8928 24.1058 18.9338 23.2603C18.6766 23.0357 18.4377 22.7907 18.1927 22.5539C17.3895 21.7846 16.6895 20.9144 16.1102 19.965L15.9897 19.7711C15.9032 19.6407 15.8333 19.5002 15.7815 19.3525C15.7039 19.0524 15.906 18.8115 15.906 18.8115C15.906 18.8115 16.4021 18.2684 16.6329 17.9744C16.8574 17.6886 17.0473 17.4109 17.1698 17.2129C17.4107 16.825 17.4863 16.4268 17.3597 16.1185C16.788 14.722 16.1959 13.3317 15.5875 11.9515C15.4671 11.6779 15.1098 11.4819 14.7851 11.4431C14.6749 11.4309 14.5646 11.4186 14.4544 11.4105C14.1802 11.3968 13.9055 11.3996 13.6316 11.4186L14.042 11.4023L14.044 11.4043Z" fill="white"/>
</g>
<defs>
<clipPath id="clip0_4659_14">
<rect width="42" height="42" fill="white"/>
</clipPath>
</defs>
</svg>
