<?xml version="1.0" encoding="utf-8"?><svg viewBox="0 0 210 146" xmlns="http://www.w3.org/2000/svg" xmlns:xlink="http://www.w3.org/1999/xlink"><style>:root>svg{display:none}:root>svg:target{display:block}</style><svg viewBox="0 0 24 24" id="arrow-slider"><path d="m10.828 12 4.95 4.95-1.414 1.414L8 12l6.364-6.364 1.414 1.415-4.95 4.95V12Z"/></svg><svg viewBox="0 0 146 135" id="benefits-1"><path d="M71.489.33c-.6.172-1.483.685-1.996 1.198-.6.57-13.374 23.469-35.132 63.048L.143 126.74v2.053c0 1.626.114 2.196.598 2.823.827 1.141 1.854 1.825 3.137 2.111 1.483.37 136.761.37 138.244 0 1.283-.286 2.31-.97 3.137-2.111.484-.627.598-1.197.598-2.823v-2.053L111.81 64.861C93.075 30.814 77.477 2.583 77.106 2.098 75.966.53 73.513-.24 71.49.332Zm31.082 69.465 29.428 53.523-29.514.086c-16.225.028-42.745.028-58.97 0l-29.485-.086 29.4-53.523C59.625 40.367 72.914 16.27 73 16.27c.085 0 13.374 24.096 29.571 53.524Z"/><path d="M70.918 45.727c-1.654.6-2.937 1.74-3.65 3.223l-.684 1.368v39.637l.684 1.369c2.253 4.59 9.21 4.59 11.464 0l.684-1.369.086-18.963c.057-12.718-.029-19.419-.229-20.389-.399-1.91-1.425-3.364-2.965-4.277-1.569-.912-3.85-1.169-5.39-.599ZM69.892 101.96c-5.105 2.567-4.79 10.066.542 12.319 1.254.513 3.878.513 5.132 0 3.137-1.312 4.791-4.591 3.993-7.899-.742-3.08-3.365-5.161-6.559-5.161-1.17 0-2.025.199-3.108.741Z"/></svg><svg viewBox="0 0 146 146" id="benefits-2"><path d="m56.46 10.979 10.98 10.978-30.512 30.512L6.416 82.98l3.992 3.992c2.196 2.195 4.107 3.992 4.277 3.992.371 0 69.15-68.78 69.15-69.15 0-.143-2.28-2.567-5.046-5.333l-5.076-5.076h60.881v60.881l-5.076-5.076c-2.766-2.766-5.19-5.047-5.332-5.047-.371 0-69.15 68.78-69.15 69.15 0 .172 1.796 2.082 3.991 4.278l3.992 3.992 30.512-30.512 30.512-30.511 10.978 10.978L146 100.518V0H45.482l10.979 10.979Z"/><path d="m30.227 91.393-30.37 30.369 4.135 4.134 4.135 4.135 30.512-30.512L69.15 69.008l-3.992-3.992c-2.196-2.196-4.106-3.993-4.277-3.993-.143 0-13.944 13.66-30.654 30.37ZM46.395 107.447l-30.426 30.426 4.135 4.135 4.134 4.135 30.37-30.37c16.71-16.71 30.369-30.511 30.369-30.654 0-.285-7.7-8.127-7.985-8.127-.085 0-13.83 13.688-30.597 30.455Z"/></svg><svg viewBox="0 0 142 142" id="benefits-3"><path d="m118.307 1.679-.827.826v136.99l.827.826.827.827h20.503l.77-.741.741-.77V2.363l-.741-.77-.77-.741h-20.503l-.827.827ZM80.182 29.225c-1.882.827-1.768-3.109-1.768 55.89 0 57.402-.057 54.95 1.369 55.72.399.199 4.02.313 10.75.313h10.18l.827-.827.827-.826V30.793l-.827-.912-.827-.942-9.81-.057c-8.012-.057-9.951 0-10.721.343ZM40.602 57.997l-.97.97v80.528l.828.826.827.827h10.18c6.73 0 10.351-.114 10.75-.313 1.426-.77 1.369.599 1.369-41.804 0-39.067 0-39.58-.57-40.52-.314-.514-.913-1.056-1.312-1.199-.4-.17-4.82-.285-10.437-.285h-9.695l-.97.97ZM1.707 86.085l-.855.827V139.637l.741.77.77.741h20.503l.827-.827.826-.826V86.997l-.684-.798-.684-.799-10.323-.085-10.294-.086-.827.856Z"/></svg><svg viewBox="0 0 83 83" id="btn-play"><circle cx="41.5" cy="41.5" r="41.5"/><path d="M34 57.896V27l26.539 15.448L34 57.896Z"/></svg><svg viewBox="0 0 210 66" id="desc-figure"><path d="M210 66H0V0l210 66Z"/></svg><svg viewBox="0 0 24 24" id="email-icon"><path d="M22 8.608v8.142a3.25 3.25 0 0 1-3.066 3.245L18.75 20H5.25a3.25 3.25 0 0 1-3.245-3.066L2 16.75V8.608l9.652 5.056a.75.75 0 0 0 .696 0L22 8.608ZM5.25 4h13.5a3.25 3.25 0 0 1 3.234 2.924L12 12.154l-9.984-5.23a3.25 3.25 0 0 1 3.048-2.919L5.25 4Z"/></svg><svg viewBox="0 0 24 24" id="phone-icon"><path d="M6.62 10.79c1.44 2.83 3.76 5.14 6.59 6.59l2.2-2.2c.27-.27.67-.36 1.02-.24 1.12.37 2.33.57 3.57.57.55 0 1 .45 1 1V20c0 .55-.45 1-1 1-9.39 0-17-7.61-17-17 0-.55.45-1 1-1h3.5c.55 0 1 .45 1 1 0 1.25.2 2.45.57 3.57.11.35.03.74-.25 1.02l-2.2 2.2Z"/></svg><svg viewBox="0 0 84 84" id="services-1"><g clip-path="url(#a)"><path d="M41.508 3.396c-.131.05-9.45 6.99-20.705 15.422C1.165 33.534.328 34.191.148 34.814c-.099.41-.148 2.018-.115 4.217.049 4.019.131 4.282 1.247 4.626.607.18.935.099 2.05-.476.066-.033.115 7.58.115 16.931V77.11h-.804C.755 77.11 0 77.618 0 78.898c0 .836.36 1.394 1.1 1.673.54.197 81.26.197 81.8 0 1.166-.443 1.494-1.87.64-2.822-.41-.46-.574-.525-1.64-.607l-1.181-.082V60.112c0-9.335.016-16.964.049-16.964.016 0 .328.148.689.329.788.393 1.198.41 1.723.049.804-.558.804-.558.804-4.89.016-3.642-.017-4.134-.28-4.445-.147-.197-2.034-1.657-4.166-3.265l-3.905-2.904v-7.416c0-7.038-.017-7.432-.328-7.924-.509-.853-.903-.902-7.678-.837l-6.136.05-.476.54c-.46.526-.476.575-.476 2.33 0 1.001-.033 1.805-.082 1.805-.05 0-4.02-2.953-8.843-6.562-8.794-6.612-9.302-6.94-10.106-6.612Zm19.736 18.277c10.484 7.875 19.13 14.355 19.196 14.42.066.066.115.608.082 1.215l-.05 1.099-18.67-14.027c-11.878-8.925-18.916-14.11-19.31-14.224-.492-.148-.722-.148-1.083.049-.344.164-35.585 26.48-37.603 28.07-.164.132-.197-.065-.164-1l.05-1.165 19.113-14.355C33.32 13.847 41.967 7.383 42.049 7.383c.066 0 8.696 6.431 19.196 14.29Zm-1.46 5.643 17.49 13.125V77.11H52.007V46.495l-.345-.377a2.606 2.606 0 0 0-.754-.525c-.525-.197-17.293-.197-17.818 0-.23.098-.574.328-.754.525l-.345.377V77.11H6.891V40.441l17.522-13.157C34.043 20.048 42 14.142 42.097 14.159c.099.016 8.056 5.939 17.686 13.157Zm12.404-6.89v5.004l-4.102-3.068-4.102-3.085v-3.855h8.204v5.004ZM48.561 63.082v14.027H35.438V49.055h13.126v14.027Z"/><path d="M40.753 23.625c-3.527.541-6.3 3.2-7.055 6.76-1.197 5.627 3.84 10.893 9.565 10.007 3.462-.541 6.284-3.232 7.022-6.677.296-1.427.296-2.002 0-3.413-.919-4.364-5.168-7.35-9.532-6.677Zm3.33 3.905c.952.492 1.707 1.181 2.15 1.985l.377.673h-9.22l.246-.476c.574-1.1 1.558-1.936 2.871-2.428.853-.312 2.724-.18 3.577.246Zm2.199 6.874c-.443.886-1.263 1.608-2.362 2.116-2.215 1.001-5.103.033-6.202-2.116l-.312-.607h9.188l-.312.607ZM12.879 45.593c-.18.082-.476.312-.656.508-.312.345-.329.624-.378 9.926l-.033 9.565-.492.099c-.558.098-1.148.918-1.148 1.575 0 .689.574 1.443 1.263 1.64.427.131 3.052.164 8.466.131l7.858-.049.493-.558c.443-.492.492-.64.41-1.312-.082-.804-.673-1.493-1.28-1.493-.312 0-.312-.197-.312-9.516v-9.515l-.476-.525-.475-.542-6.464-.032c-3.544-.017-6.596.032-6.776.098Zm10.746 5.02v1.559h-8.367v-3.117h8.367v1.558Zm0 9.926v4.922h-8.367v-9.844h8.367v4.922ZM58.144 45.61c-.197.065-.509.344-.706.59-.344.443-.344.476-.344 9.926v9.5h-.345c-.18 0-.558.212-.82.475-.673.673-.673 1.608 0 2.346l.476.541 7.973.05c8.974.049 8.925.049 9.385-1.067.213-.492.23-.722.081-1.214-.18-.607-.754-1.132-1.246-1.132-.214 0-.246-1.05-.246-9.351 0-8.187-.033-9.434-.263-9.86-.476-.936-.755-.969-7.481-.952-3.364 0-6.284.066-6.464.147Zm10.598 5.003v1.559H60.54v-3.117h8.203v1.558Zm0 9.926v4.922H60.54v-9.844h8.203v4.922ZM38.276 62.13c-.197.033-.542.263-.771.493-.607.59-.607 1.788-.017 2.395 1.296 1.28 3.413.033 2.888-1.706-.263-.886-1.132-1.378-2.1-1.182Z"/></g></svg><svg viewBox="0 0 84 84" id="services-2"><g clip-path="url(#a)"><path d="M0 42v42h61.031V72.352h-8.039v3.609H8.04v-4.266h6.366c6.037 0 6.382-.016 7.087-.344.985-.443 1.608-1.05 2.067-2.035l.394-.82V47.332l-.394-.82c-.459-.985-1.082-1.592-2.067-2.035-.705-.328-1.05-.344-7.087-.344H8.039v-7.875h7.038l.05-.903.049-.886 4.15 3.462c2.281 1.903 4.217 3.396 4.283 3.314 1.263-1.476 1.69-2.067 1.558-2.182-.082-.065-2.379-1.985-5.102-4.265l-4.971-4.118V28.219H8.039V8.039H10.5v7.055h3.609v2.493c0 3.397.394 4.61 1.953 6.153 2.46 2.428 6.398 2.592 9.056.394.771-.64 1.739-2.084 2.05-3.085.148-.492.28-1.772.345-3.38l.099-2.575h3.396V8.039h2.46v20.18H24.61v8.039H41.671V8.039H44.133v40.688H73.5V8.039h2.46v44.953H52.993V64.395l-2.494 2.493-2.51 2.51.985.985.984.984 3.363-3.363 3.364-3.363H61.03v-3.61H84V0H0v42Zm81.21-11.484v27.726H58.243v3.61h-2.46V55.78H78.75V5.25H38.883v28.219h-11.32V31.008h8.695V5.25H5.25v25.758h7.055v2.46H5.25V78.75h50.531V75.305H58.242v5.906H2.79V2.79H81.21v27.726ZM28.22 10.172v2.133h-14.93V8.039h14.93v2.133Zm42.492 3.527v5.66H46.922V8.04H70.71v5.66Zm-46.102 3.807c0 2.723-.164 3.314-1.165 4.265a3.826 3.826 0 0 1-6.152-1.181c-.344-.738-.394-1.05-.394-3.167v-2.33h7.711v2.413Zm46.102 6.775v2.133H46.922v-4.266H70.71v2.133Zm0 13.29v8.367H46.922V29.203H70.71v8.367ZM12.305 57.913v10.992H8.039V46.922h4.266v10.992Zm8.104-10.812c.837.378.903 1.69.115 2.1-.18.115-1.394.18-2.87.18h-2.56v-2.46h2.46c1.46 0 2.61.082 2.855.18Zm.755 10.763v5.873l-3.035-.049-3.035-.05V52.173l3.002-.05c1.64-.016 3.002-.049 3.035-.081.017-.017.033 2.608.033 5.824Zm-.64 8.76c.788.41.722 1.723-.115 2.1-.246.1-1.394.181-2.854.181h-2.461v-2.46h2.56c1.476 0 2.69.065 2.87.18Z"/><path d="M51.926 8.86c-.28.081-.722.377-.985.656l-.492.508v7.35l.492.509c.263.262.755.574 1.1.672.393.099 3.051.148 7.153.115 7.235-.049 7.054-.033 7.743-1.165.296-.475.329-.836.329-3.806s-.033-3.33-.329-3.806c-.689-1.148-.492-1.116-7.874-1.148-3.66-.017-6.875.032-7.137.114Zm12.55 4.921v2.133h-11.32v-4.266h11.32v2.133ZM33.55 50.4c-.442.082-1.509.476-2.362.886-5.135 2.494-7.218 8.76-4.66 13.995.46.935.953 1.575 1.937 2.559 1.87 1.87 3.659 2.756 6.152 3.035 2.461.279 4.955-.312 6.957-1.657 2.017-1.345 3.395-3.183 4.134-5.463.344-1.083.443-1.657.443-3.052.016-3.133-.87-5.299-3.068-7.465-1.526-1.509-2.74-2.23-4.627-2.707-1.362-.36-3.445-.41-4.905-.13Zm4.004 2.838c2.625.624 4.873 2.822 5.594 5.48.296 1.1.23 3.084-.147 4.15-1.608 4.644-6.89 6.629-11.074 4.168-.87-.509-2.133-1.805-2.675-2.723a7.457 7.457 0 0 1 1.23-9.008c1.953-1.968 4.43-2.69 7.072-2.067ZM66.61 70.3v1.395H69.562V68.906h-2.954v1.395ZM72.023 70.3v1.395H74.812V68.906H72.023v1.395ZM77.273 70.3v1.395H80.062V68.906H77.273v1.395Z"/></g></svg><svg viewBox="0 0 84 84" id="services-3"><path d="M30.68 9.073 21.902 14.7l-.049-3.117c-.033-2.609-.082-3.166-.312-3.413-.246-.262-.623-.295-4.232-.295-3.643 0-3.987.033-4.233.295-.246.28-.28.968-.28 6.366l-.016 6.054-3.166 2.018c-1.755 1.116-3.494 2.231-3.855 2.51l-.673.476v4.101c0 3.889.016 4.118.328 4.43.623.624 1.1.427 4.331-1.64l3.052-1.953V38.85l-4.217.066-4.232.049-1.067.509c-1.247.59-2.149 1.46-2.756 2.608l-.443.82-.05 16.57C-.015 77.652-.065 76.65.985 78.177c.28.41.903 1 1.362 1.312 1.706 1.116.722 1.083 22.362 1.034l19.507-.05.951-.377c1.132-.459 2.363-1.607 2.888-2.69.541-1.132.672-2.395.672-6.825v-3.97h8.745c4.79 0 8.81-.066 8.909-.132.525-.344.558-.853.558-9.007v-8.186l.853-.558c.59-.394.984-.82 1.263-1.362l.394-.771h2.74v4.709l-.64.295c-.804.36-1.23.804-1.575 1.591-.542 1.313-.164 2.904.886 3.79.787.656 1.936.804 5.643.738 3.74-.049 4.184-.164 5.103-1.329.41-.508.508-.803.557-1.657.099-1.558-.557-2.641-1.92-3.215l-.491-.197-.05-4.118-.049-4.135-.46-.918c-.491-1.017-1.525-2.067-2.542-2.592-.919-.476-2.395-.673-4.971-.673h-2.231l-.394-.788c-.279-.525-.673-.951-1.263-1.345l-.853-.558v-2.756c0-1.51.032-2.756.081-2.756.033 0 1.395.853 3.003 1.886 1.788 1.149 3.1 1.887 3.347 1.887.23 0 .59-.147.804-.312.393-.311.393-.344.443-4.134.032-2.46-.017-3.954-.132-4.233-.13-.328-3.904-2.822-14.88-9.86C39.506 3.02 40.179 3.445 39.8 3.445c-.196 0-4.298 2.543-9.121 5.628Zm22.083 5.365c6.94 4.462 14.125 9.072 15.98 10.254l3.362 2.165.05 2.1.049 2.1-.377-.246c-2.33-1.526-31.189-20-31.468-20.147-.197-.098-.525-.164-.721-.131-.181.05-7.285 4.528-15.767 9.975A4922.449 4922.449 0 0 1 7.908 30.729l-.525.312V26.94L23.51 16.586C32.37 10.894 39.736 6.267 39.884 6.3c.147.033 5.939 3.692 12.879 8.138ZM19.49 13.224l-.05 3.067-1.886 1.215c-1.034.672-2.018 1.28-2.166 1.378-.279.147-.295-.099-.295-4.282v-4.43h4.429l-.032 3.052Zm32.68 7.907 12.223 7.826.05 3.74c.016 2.068-.033 3.725-.099 3.725-.328 0-1.673 1.362-1.87 1.887-.18.541-.246.574-.968.574h-.755l-.098-.886c-.164-1.624-.886-2.231-2.658-2.231H56.93v-3.117H60.703V30.188H50.695v2.46h3.774v3.085l-1.23.066c-1.133.049-1.28.098-1.756.574-.443.443-.525.672-.59 1.493l-.066.968-2.658.098c-1.821.05-2.855.164-3.347.328-1.1.41-2.133 1.214-2.74 2.133-1.066 1.608-1.066 1.69-1.066 12.863v10.057H36.75V52.024c0-11.845-.016-12.304-.312-12.665l-.312-.394H28.17c-7.597 0-7.974.016-8.302.312-.345.311-.345.311-.345 12.682v12.354h-4.429l.033-17.654.049-17.653 12.222-7.858c6.727-4.315 12.305-7.842 12.387-7.859.099 0 5.677 3.528 12.387 7.842Zm6.071 21.607v4.676h-5.086V38.063h5.086v4.675Zm8.22-3.97c.574.427.64.886.64 3.97 0 2.002-.066 3.183-.197 3.413-.443.853-1.23 1-1.854.36-.41-.393-.41-.41-.41-3.773s0-3.38.41-3.773c.426-.443 1-.525 1.41-.197Zm-53.665 3.954v1.395l-3.019.049c-3.314.049-3.462.098-4.266 1.181-.344.443-.344.574-.344 14.372 0 13.863 0 13.929.344 14.388.181.246.591.624.886.837l.542.36h34.683l.541-.36c.295-.213.706-.59.886-.837.345-.46.345-.574.427-15.422.098-16.472.016-15.372 1.099-16.39.837-.803 1.46-.951 3.986-.951h2.297V44.1l-1.46.066c-1.624.049-2.083.262-2.756 1.28l-.377.54v14.668c0 16.029.049 15.29-.952 16.357-.246.263-.738.607-1.1.771-.623.296-1.509.312-19.933.312-18.293 0-19.31-.016-19.933-.312-.837-.377-1.657-1.296-1.87-2.1-.247-.87-.247-31.057 0-31.926.213-.804 1.033-1.723 1.87-2.1.574-.263 1.132-.312 4.56-.312h3.889v1.378Zm21.492 10.106v11.485H21.82V41.344H34.29v11.484Zm27.89-10.09v1.395h-1.476V41.344H62.18v1.394Zm13.65-.82c.378.279.87.804 1.067 1.148.361.624.377.82.377 4.463v3.823h-2.592l-.065-2.674c-.05-3.036-.214-3.511-1.379-4.168-.54-.311-.885-.377-2.23-.377h-1.609V41.312l2.855.065 2.855.049.722.492ZM12.798 56.306c0 8.794.033 9.73.279 10.008.246.28.902.296 14.11.296h13.83l-.033 3.15-.05 3.166H7.63l-.05-13.174-.032-13.158h5.25v9.712Zm38.095-8.728c.066.853.148 1.083.59 1.526l.526.525 3.478.05c2.412.032 3.61 0 3.937-.148.69-.28 1.132-1.001 1.23-2.035l.1-.902h.754c.722 0 .788.033.968.574.197.525 1.542 1.887 1.854 1.887.082 0 .148 3.429.148 7.629v7.629h-15.75v-17.72h2.1l.065.985Zm28.678 6.399c.18.18.328.393.328.492 0 .082-.147.312-.328.492-.311.312-.541.328-3.543.328-1.887 0-3.33-.065-3.528-.164-.41-.23-.426-1.066-.016-1.296.164-.098 1.624-.18 3.527-.18 3.019 0 3.249.016 3.56.328Z"/><path d="M30.352 52.828v1.149h1.804V51.68h-1.804v1.148ZM75.55 61.523c-.18.066-1.673 1.493-3.297 3.15-3.773 3.807-4.331 4.791-4.331 7.777 0 5.578 5.43 9.434 10.73 7.612 2.083-.705 3.675-2.165 4.675-4.265.542-1.148.591-1.362.64-3.035.066-2.035-.23-3.281-1.115-4.676-.591-.919-6.202-6.497-6.645-6.612a1.127 1.127 0 0 0-.656.05Zm2.84 5.3c2.46 2.477 3.001 3.314 3.231 4.889.328 2.247-1 4.692-3.117 5.742-3.314 1.624-7.137-.148-8.056-3.773-.295-1.182-.23-2.051.296-3.462.295-.755.722-1.28 2.723-3.33 1.313-1.33 2.428-2.412 2.494-2.412.05 0 1.148 1.05 2.428 2.346Z"/></svg><svg viewBox="0 0 42 42" id="telegram"><g clip-path="url(#a)"><path d="M21 0A21.006 21.006 0 0 0 0 21a21.006 21.006 0 0 0 21 21 21.006 21.006 0 0 0 21-21A21.006 21.006 0 0 0 21 0Z"/><path d="M9.506 20.778c6.123-2.667 10.204-4.425 12.245-5.275 5.834-2.426 7.045-2.847 7.836-2.861.174-.003.561.04.814.244.21.172.269.405.298.569.027.163.063.536.033.826-.315 3.321-1.683 11.38-2.379 15.098-.292 1.574-.873 2.102-1.434 2.153-1.22.113-2.146-.805-3.327-1.58-1.847-1.211-2.89-1.965-4.685-3.148-2.074-1.366-.729-2.117.452-3.344.309-.321 5.683-5.209 5.785-5.652.013-.056.027-.262-.098-.371-.122-.11-.302-.072-.433-.043-.187.043-3.137 1.994-8.86 5.855-.836.576-1.594.856-2.277.841-.748-.016-2.192-.423-3.265-.772-1.312-.428-2.359-.654-2.267-1.38.046-.378.568-.764 1.562-1.16Z"/></g></svg><svg viewBox="0 0 42 42" id="whatsapp"><g clip-path="url(#a)"><path d="M21.002.583C32.278.583 41.419 9.724 41.419 21c0 11.276-9.14 20.417-20.417 20.417a20.323 20.323 0 0 1-10.27-2.767L.594 41.417l2.76-10.143A20.32 20.32 0 0 1 .585 21C.585 9.724 9.725.583 21.002.583Zm-6.958 10.821-.408.017a1.962 1.962 0 0 0-.76.204 2.639 2.639 0 0 0-.6.465c-.245.231-.384.431-.533.625a5.573 5.573 0 0 0-1.155 3.426c.004 1 .265 1.974.673 2.885.835 1.841 2.21 3.791 4.022 5.598.437.435.866.872 1.327 1.278a19.29 19.29 0 0 0 7.84 4.177l1.16.178c.378.02.756-.008 1.135-.027a4.063 4.063 0 0 0 1.7-.471c.268-.138.53-.288.783-.45 0 0 .088-.056.255-.183.276-.204.445-.35.674-.588.17-.176.316-.382.429-.617.159-.332.318-.967.383-1.496.05-.404.035-.625.029-.762-.008-.218-.19-.445-.388-.54l-1.188-.534s-1.776-.773-2.863-1.267a1.015 1.015 0 0 0-.359-.084.985.985 0 0 0-.772.26c-.01-.005-.147.111-1.623 1.9a.714.714 0 0 1-.751.265 2.921 2.921 0 0 1-.39-.134c-.253-.107-.341-.147-.515-.22a12.306 12.306 0 0 1-3.215-2.049c-.257-.224-.496-.47-.741-.706a12.86 12.86 0 0 1-2.083-2.589l-.12-.194a1.886 1.886 0 0 1-.209-.419c-.077-.3.125-.54.125-.54s.496-.544.727-.838a8.74 8.74 0 0 0 .537-.761c.24-.388.316-.786.19-1.095a170.233 170.233 0 0 0-1.772-4.166c-.12-.274-.478-.47-.803-.509-.11-.012-.22-.024-.33-.032a6.908 6.908 0 0 0-.823.008l.41-.017.002.002Z"/></g></svg></svg>