<?xml version="1.0" encoding="utf-8"?><svg viewBox="0 0 30 28" xmlns="http://www.w3.org/2000/svg" xmlns:xlink="http://www.w3.org/1999/xlink"><style>:root>svg{display:none}:root>svg:target{display:block}</style><svg viewBox="0 0 18 18" id="chevron-up"><g clip-path="url(#a)"><path fill-rule="evenodd" clip-rule="evenodd" d="M1.335 5.991a1.086 1.086 0 0 0 0 1.57L9 15l7.665-7.44a1.086 1.086 0 0 0 0-1.569 1.168 1.168 0 0 0-1.616 0L9 11.862l-6.049-5.87a1.168 1.168 0 0 0-1.616 0Z"/></g></svg><svg viewBox="0 0 28 28" id="icon-close"><path d="M.002 25.775 25.776.001 28 2.225 2.225 27.999z"/><path d="M27.999 25.775 2.225.001.002 2.225l25.774 25.774z"/></svg><svg viewBox="0 0 27 22" id="tg"><g clip-path="url(#a)"><path d="m10.157 20.669.42-6.153L22.082 4.45c.51-.451-.105-.67-.78-.277l-14.2 8.714-6.143-1.891c-1.318-.364-1.333-1.251.3-1.891L25.183.145c1.093-.48 2.142.26 1.723 1.89L22.83 20.67c-.285 1.324-1.109 1.644-2.247 1.033l-6.202-4.451-2.981 2.807c-.345.335-.63.611-1.244.611Z"/></g></svg><svg viewBox="0 0 30 19" id="vk"><path d="M16.34 19C6.09 19 .244 11.868 0 0h5.134c.169 8.71 3.954 12.4 6.952 13.161V0h4.835v7.513c2.96-.324 6.07-3.747 7.12-7.513h4.834c-.805 4.64-4.178 8.064-6.577 9.471C24.697 10.613 28.538 13.6 30 19h-5.322c-1.143-3.614-3.99-6.41-7.757-6.79V19h-.581Z"/></svg></svg>