<?xml version="1.0" encoding="utf-8"?><svg viewBox="0 0 42 42" xmlns="http://www.w3.org/2000/svg" xmlns:xlink="http://www.w3.org/1999/xlink"><style>:root>svg{display:none}:root>svg:target{display:block}</style><svg viewBox="0 0 42 42" id="whatsapp"><g clip-path="url(#a)"><path d="M21.002.583C32.278.583 41.419 9.724 41.419 21c0 11.276-9.14 20.417-20.417 20.417a20.323 20.323 0 0 1-10.27-2.767L.594 41.417l2.76-10.143A20.32 20.32 0 0 1 .585 21C.585 9.724 9.725.583 21.002.583Zm-6.958 10.821-.408.017a1.962 1.962 0 0 0-.76.204 2.639 2.639 0 0 0-.6.465c-.245.231-.384.431-.533.625a5.573 5.573 0 0 0-1.155 3.426c.004 1 .265 1.974.673 2.885.835 1.841 2.21 3.791 4.022 5.598.437.435.866.872 1.327 1.278a19.29 19.29 0 0 0 7.84 4.177l1.16.178c.378.02.756-.008 1.135-.027a4.063 4.063 0 0 0 1.7-.471c.268-.138.53-.288.783-.45 0 0 .088-.056.255-.183.276-.204.445-.35.674-.588.17-.176.316-.382.429-.617.159-.332.318-.967.383-1.496.05-.404.035-.625.029-.762-.008-.218-.19-.445-.388-.54l-1.188-.534s-1.776-.773-2.863-1.267a1.015 1.015 0 0 0-.359-.084.985.985 0 0 0-.772.26c-.01-.005-.147.111-1.623 1.9a.714.714 0 0 1-.751.265 2.921 2.921 0 0 1-.39-.134c-.253-.107-.341-.147-.515-.22a12.306 12.306 0 0 1-3.215-2.049c-.257-.224-.496-.47-.741-.706a12.86 12.86 0 0 1-2.083-2.589l-.12-.194a1.886 1.886 0 0 1-.209-.419c-.077-.3.125-.54.125-.54s.496-.544.727-.838a8.74 8.74 0 0 0 .537-.761c.24-.388.316-.786.19-1.095a170.233 170.233 0 0 0-1.772-4.166c-.12-.274-.478-.47-.803-.509-.11-.012-.22-.024-.33-.032a6.908 6.908 0 0 0-.823.008l.41-.017.002.002Z"/></g></svg></svg>